<?xml version="1.0" encoding="utf-8"?>
<!-- Generator: Adobe Illustrator 21.0.0, SVG Export Plug-In . SVG Version: 6.00 Build 0)  -->
<svg version="1.1" id="Vrstva_1" xmlns="http://www.w3.org/2000/svg" xmlns:xlink="http://www.w3.org/1999/xlink" x="0px" y="0px"
	 viewBox="0 0 455.6 364" style="enable-background:new 0 0 455.6 364;" xml:space="preserve">
<style type="text/css">
	.st0{fill:#FFFFFF;}
	.st1{fill:#FF7B00;}
</style>
<g id="_x23_000000ff">
</g>
<g id="_x23_ffffffff">
	<path class="st0" d="M97.4,30c1.5-0.3,3.1-0.3,4.6-0.3c16.2,0,32.3,0,48.5,0c0,19.6,0,39.2,0,58.8c-8.2,9.6-26.4,9.5-32.8-2.1
		c-4.8-8.7-4.9-19-6.6-28.6c-0.5-2.2-0.8-4.8-2.5-6.4c-2.7-2.1-7.1-1.6-9,1.4c-2.8,4.2-3.1,10.1-0.8,14.6c1.4,2.7,4.4,3.8,7.1,4.7
		c0,6.9,0,13.8,0,20.6c-7.5-0.3-15-4.2-18.5-11c-5.4-10.3-5.3-22.6-3.5-33.8C85,40,89.8,32.7,97.4,30 M121.4,50.3
		c2.8,6.2,2.3,13.5,5.8,19.5c2.6,4.4,10,4.6,12.7,0.2c2.5-4.7,2.1-11.3-1.4-15.4C134,50.1,127.2,50.4,121.4,50.3z"/>
	<path class="st0" d="M228.4,70.7c7.5-2.1,15.9,0,21.6,5.3c6,5.5,8.7,14.3,6.8,22.2c-2.1,9.2-10.3,16.5-19.6,17.5
		c-7.9,1-16.2-2.5-21-8.9c-4.9-6.3-6.1-15.3-3-22.8C215.8,77.6,221.6,72.5,228.4,70.7z"/>
	<path class="st0" d="M419.4,70.6c8.4-2.2,17.9,0.9,23.3,7.7c5,5.9,6.5,14.5,4.1,21.8c-3,9.6-12.9,16.4-23,15.7
		c-11-0.3-20.9-9.7-21.7-20.7C400.9,84.1,408.7,73.1,419.4,70.6z"/>
	<path class="st0" d="M88.8,104.8c5.4-5,13.2-5.9,20.2-6.1c13.8-0.2,27.7,0,41.5-0.1c0,7.1,0,14.1,0,21.2c-11.8,0-23.6,0-35.5,0
		c-3.7,0-7.7,0.1-10.7,2.6c-3.7,2.9-3.9,8.8-1.5,12.7c2.8,3.8,7.9,4.1,12.2,4.4c11.8,0.2,23.7,0,35.5,0.1c0,7,0,14.1,0,21.1
		c-12.2,0-24.3,0-36.5,0c-3.8,0.1-8.2,0.4-11,3.3c-2.6,3.1-2.1,7.9-0.2,11.2c2.9,4.2,8.5,4.7,13.2,5c11.5,0.3,23,0,34.5,0.1
		c0,7.1,0,14.1,0,21.2c-21.9,0-43.8,0-65.7,0c0-6.8,0-13.7,0-20.5c3.2,0,6.4,0,9.6,0.1c-2.8-2-5.5-4.1-7.5-6.9
		c-4.7-6.4-5.2-15.2-2.3-22.5c1.6-4.2,5.3-7,9.2-9c-5.3-4-9.7-9.7-10.6-16.4C82.2,118.7,83.1,110.2,88.8,104.8z"/>
	<path class="st0" d="M262.6,139.6c7.2-5.6,16.5-7.1,25.4-7.2c27.7,0,55.4,0,83.1,0c8.9,0.1,18.3,1.5,25.6,7
		c5.1,3.8,8.2,10.2,7.9,16.6c-0.3,8.8-4.6,16.8-9.8,23.7c-7.5,9.8-15.1,19.6-22.6,29.4c-4.1,5.2-7.8,10.8-12.8,15.2
		c-5.6,5.1-12.4,8.8-19.7,10.8c0.3,8.6-0.8,17.3,0.9,25.9c2.3,10.5,9.5,19.8,19.1,24.5c10.6,5.4,23.8,5,34-1
		c10.8-6.1,17.9-18,18.1-30.4c-0.3-4.7,2.8-9.3,7.4-10.4c5.6-1.7,11.9,2.6,12.4,8.5c0.7,18-8.4,35.9-23,46.4
		c-12.3,9-28.5,12.7-43.4,9.7c-14.2-2.7-27.1-11.2-35.4-23.1c-8.9,12.7-23.2,21.7-38.6,23.6c-17,2.4-34.8-3.7-46.8-15.9
		c-8.8-8.7-14.6-20.4-16-32.7c-0.5-4.6-1.3-10,2.2-13.6c3.9-4.5,11.8-4.1,15.3,0.8c2.9,3.7,1.5,8.7,2.7,13
		c2.9,15.9,17.6,28.5,33.7,29c15.1,0.9,30.1-8.9,35.3-23.1c3.8-9.9,2-20.7,2.4-31c-10.4-2.7-19.5-9.3-26.1-17.7
		c-9.6-12.4-19.1-24.9-28.7-37.4c-5.1-6.7-9.4-14.5-10-23C254.4,150.4,257.3,143.6,262.6,139.6z"/>
	<path class="st0" d="M61.5,208.1c5.8-0.2,11.5-0.1,17.3-0.1c-0.8,5.3-1.5,10.5-2.3,15.8c-5.9,0.1-11.8,0-17.7,0
		C59.6,218.5,60.7,213.3,61.5,208.1z"/>
	<path class="st0" d="M82.6,223.7c0.7-5.3,1.4-10.7,2.2-16c21.9,0,43.8,0,65.7,0c0,5.3,0,10.6,0,16
		C127.9,223.7,105.2,223.7,82.6,223.7z"/>
	<path class="st0" d="M81,226.9c7,0,14,0,21,0c-0.4,4.9-1.4,10.3,1.4,14.7c2.6,4.2,7.9,5.4,12.5,5.4c11.5,0.1,23,0,34.6,0
		c0,6.4,0,12.7,0,19.1c-24.8,0-49.6,0-74.4,0c0.8-6.2,1.7-12.3,2.5-18.5c4.3,0,8.6,0,12.9,0c-3.5-1.7-7.3-3.4-9.2-6.9
		C79.7,236.5,80.4,231.5,81,226.9z"/>
	<path class="st0" d="M71.1,275.1c9.5-5.5,21.2-5.7,31.7-3.6c7.6,1.5,15,6.5,17.3,14.2c2.9,9.7,0.4,19.9,0.4,29.8c10,0,20,0,30,0
		c0,7.6,0,15.3,0,22.9c-33.5,0-66.9,0-100.4,0c2.2-13.7,4.3-27.3,6.5-41C58.1,288.4,63.1,279.8,71.1,275.1 M77.5,297.4
		c-1.8,5.9-1.7,12.1-2.8,18.1c8.6,0.1,17.1,0.1,25.7,0c0.4-5.5,1.1-11,1.3-16.6c0.2-3.8-2.3-7.4-6-8.4
		C89.1,288.8,80.2,290.4,77.5,297.4z"/>
</g>
<g id="_x23_ff7b00ff">
	<path class="st1" d="M34.2,29.7c19.3-0.2,38.5,0,57.8-0.1c1.8,0,3.6,0.1,5.4,0.3C89.8,32.7,85,40,83.8,47.8
		c-1.8,11.2-1.9,23.5,3.5,33.8c3.6,6.8,11,10.7,18.5,11c0.1-6.9,0-13.8,0-20.6c-2.7-1-5.7-2-7.1-4.7c-2.3-4.5-2-10.4,0.8-14.6
		c1.9-2.9,6.3-3.4,9-1.4c1.8,1.6,2.1,4.2,2.5,6.4c1.8,9.6,1.8,19.9,6.6,28.6c6.4,11.5,24.6,11.7,32.8,2.1c0,3.4,0,6.8,0,10.2
		c-13.9,0.1-27.7-0.1-41.5,0.1c-7.1,0.2-14.8,1.1-20.2,6.1c-5.7,5.4-6.6,13.9-5.6,21.3c0.9,6.7,5.2,12.5,10.6,16.4
		c-3.9,2-7.6,4.8-9.2,9c-2.9,7.3-2.3,16.1,2.3,22.5c2,2.8,4.7,4.9,7.5,6.9c-3.2-0.1-6.4-0.1-9.6-0.1c0,6.8,0,13.7,0,20.5
		c21.9,0,43.8,0,65.7,0c0,2.1,0,4.2,0,6.3c-21.9,0-43.8,0-65.7,0c-0.8,5.3-1.4,10.6-2.2,16c22.6,0,45.3,0,67.9,0
		c0,7.8,0,15.5,0,23.3c-11.5,0-23,0-34.6,0c-4.6,0-9.9-1.2-12.5-5.4c-2.8-4.4-1.8-9.8-1.4-14.7c-7,0-14,0-21,0
		c-0.7,4.6-1.3,9.7,1.3,13.8c1.9,3.5,5.8,5.3,9.2,6.9c-4.3-0.1-8.6,0-12.9,0c-0.8,6.2-1.7,12.3-2.5,18.5c24.8,0,49.6,0,74.4,0
		c0,16.5,0,33,0,49.5c-10,0-20,0-30,0c0-9.9,2.4-20.1-0.4-29.8c-2.3-7.7-9.6-12.8-17.3-14.2c-10.5-2.1-22.2-1.9-31.7,3.6
		c-8,4.6-13,13.3-14.5,22.3c-2.2,13.7-4.4,27.3-6.5,41c33.5,0.1,66.9,0,100.4,0c0,7,0.1,13.9,0,20.9c-50.1-0.1-100.3,0-150.4,0
		c10.6-47.6,21.5-95.2,32.2-142.8c0.7-3.5,1.9-6.9,2-10.5C34.2,147.3,34.3,88.5,34.2,29.7 M61.5,208.1c-0.8,5.3-1.9,10.4-2.7,15.7
		c5.9,0,11.8,0,17.7,0c0.7-5.3,1.5-10.5,2.3-15.8C73,208,67.2,207.9,61.5,208.1z"/>
	<path class="st1" d="M121.4,50.3c5.8,0.1,12.6-0.2,17.1,4.3c3.5,4.1,3.9,10.7,1.4,15.4c-2.7,4.4-10.1,4.2-12.7-0.2
		C123.7,63.8,124.2,56.5,121.4,50.3z"/>
	<path class="st1" d="M104.3,122.4c3-2.4,7-2.5,10.7-2.6c11.8,0.1,23.6,0,35.5,0c0,6.6,0,13.1,0,19.7c-11.8-0.1-23.6,0.1-35.5-0.1
		c-4.3-0.3-9.5-0.6-12.2-4.4C100.4,131.2,100.6,125.3,104.3,122.4z"/>
	<path class="st1" d="M103,164c2.8-2.9,7.2-3.2,11-3.3c12.1,0,24.3,0,36.5,0c0,6.6,0,13.1,0,19.6c-11.5-0.1-23,0.2-34.5-0.1
		c-4.7-0.3-10.3-0.8-13.2-5C100.9,171.9,100.4,167.1,103,164z"/>
	<path class="st1" d="M77.5,297.4c2.7-7,11.6-8.5,18.1-6.8c3.7,0.9,6.2,4.6,6,8.4c-0.1,5.5-0.9,11-1.3,16.6c-8.6,0-17.1,0.1-25.7,0
		C75.8,309.5,75.6,303.2,77.5,297.4z"/>
</g>
</svg>
